<?xml version="1.0" standalone="no"?>
<!DOCTYPE svg PUBLIC "-//W3C//DTD SVG 20010904//EN"
 "http://www.w3.org/TR/2001/REC-SVG-20010904/DTD/svg10.dtd">
<svg version="1.0" xmlns="http://www.w3.org/2000/svg"
 width="256.000000pt" height="256.000000pt" viewBox="0 0 256.000000 256.000000"
 preserveAspectRatio="xMidYMid meet">

<g transform="translate(0.000000,256.000000) scale(0.100000,-0.100000)"
fill="#000000" stroke="none">
<path d="M0 2114 l0 -447 103 8 c56 4 103 8 104 9 2 1 -7 29 -19 62 -28 75
-30 192 -5 245 16 32 16 39 2 80 -38 105 -56 208 -62 347 l-6 142 -58 0 -59 0
0 -446z"/>
<path d="M171 2523 c-6 -21 -11 -77 -11 -124 0 -144 49 -298 129 -404 55 -73
59 -85 13 -41 -49 46 -67 43 -82 -16 -22 -79 10 -200 68 -262 34 -36 97 -65
140 -66 l33 0 -23 -41 c-35 -63 -117 -133 -188 -159 -36 -13 -68 -33 -77 -47
-22 -33 -12 -101 24 -171 52 -103 163 -155 331 -156 l92 -1 0 -35 c0 -41 27
-76 66 -86 50 -13 138 3 206 36 l66 32 49 -16 49 -16 -73 -74 c-39 -40 -75
-86 -79 -101 -4 -15 -33 -62 -64 -104 -59 -78 -105 -159 -96 -168 9 -9 26 7
42 40 20 40 104 166 115 173 4 2 19 -19 33 -47 l25 -53 -24 -40 -24 -41 390
-3 c319 -2 389 0 389 11 0 7 -22 52 -50 100 -27 47 -47 93 -44 101 9 24 232
161 287 177 17 5 62 38 98 73 l66 63 91 16 c102 17 142 39 207 117 42 51 55
79 55 121 0 47 -15 65 -85 100 -88 43 -138 95 -185 192 -49 103 -57 146 -36
188 9 18 16 45 16 61 0 16 5 28 13 28 21 1 138 112 178 172 52 77 73 160 65
258 -7 80 -24 151 -50 213 l-16 37 -471 0 -471 0 -20 -25 c-11 -14 -24 -25
-29 -25 -5 0 -15 11 -21 25 l-11 25 -548 0 -548 0 -10 -37z m1188 -249 c34
-26 61 -49 59 -53 -6 -13 -106 -101 -115 -101 -5 0 -35 25 -66 56 -56 55 -57
58 -40 77 18 20 83 65 95 66 3 1 34 -20 67 -45z m239 -240 c62 -8 140 -23 175
-34 34 -10 91 -26 127 -35 36 -9 70 -21 76 -26 7 -5 16 -9 20 -8 39 7 65 -3
76 -28 12 -32 12 -73 -1 -86 -5 -5 -28 0 -52 11 -37 16 -141 51 -174 58 -5 1
-66 15 -135 32 -94 23 -162 32 -275 38 -199 10 -536 5 -655 -11 -52 -6 -96 -8
-98 -3 -2 4 -11 8 -19 8 -9 0 -13 -6 -10 -14 4 -11 -7 -15 -46 -18 -29 -2 -54
-1 -57 2 -9 10 -103 9 -123 -2 -17 -9 -18 -7 -12 24 12 53 20 62 79 83 53 19
85 20 524 22 369 2 491 -1 580 -13z m-1210 -190 c45 -27 89 -37 215 -50 63 -7
75 -16 55 -39 -52 -62 -95 -87 -185 -104 -56 -11 -67 -10 -105 7 -50 22 -67
40 -99 101 -25 48 -35 121 -25 176 l7 36 45 -50 c24 -27 66 -62 92 -77z m497
-75 c9 -10 -46 -108 -65 -114 -25 -8 -43 -35 -67 -100 -27 -75 -24 -316 5
-444 12 -52 20 -97 17 -99 -9 -9 -56 29 -75 61 -26 43 -57 145 -71 235 -10 70
-7 133 17 317 9 69 -13 47 -32 -31 -33 -145 -26 -335 17 -449 10 -27 19 -51
19 -51 0 -1 -14 -7 -30 -14 -40 -17 -168 -9 -243 15 -32 11 -75 34 -96 52 -44
37 -84 120 -79 166 3 29 10 36 73 67 39 19 83 43 98 54 35 24 91 102 106 148
10 30 18 37 54 47 58 14 116 54 157 108 l34 45 78 -4 c43 -3 80 -7 83 -9z
m166 -50 c14 -46 14 -49 0 -43 -38 16 -98 25 -128 19 l-31 -6 19 41 c19 39 21
40 72 40 l52 0 16 -51z m471 27 c15 -22 8 -46 -14 -51 -48 -10 -325 -31 -361
-27 -40 5 -60 25 -72 72 l-6 26 223 -4 c151 -3 225 -8 230 -16z m52 -12 c10
-25 7 -34 -9 -34 -9 0 -15 9 -15 25 0 28 15 34 24 9z m490 -65 c43 -146 103
-224 213 -280 97 -48 106 -63 77 -126 -35 -72 -103 -124 -199 -149 -72 -20
-75 -19 -68 19 7 48 -18 93 -62 109 -30 10 -35 16 -30 33 22 70 12 322 -15
365 -18 30 -23 -3 -12 -78 15 -97 15 -162 1 -238 -14 -67 -24 -84 -51 -84 -10
0 -37 -9 -60 -21 l-41 -21 7 89 c6 76 -6 281 -20 351 -4 20 -10 22 -62 22 -79
0 -99 7 -122 45 -11 18 -20 36 -20 40 0 3 100 5 221 3 l222 -4 21 -75z m-648
-40 c-37 -29 -32 -39 12 -23 54 19 170 17 240 -4 75 -24 122 -45 122 -55 0 -4
-19 3 -42 15 -63 33 -165 31 -233 -4 -62 -32 -130 -104 -140 -147 -9 -44 1
-93 26 -125 22 -28 88 -66 114 -66 9 0 15 -9 15 -21 0 -12 5 -19 13 -16 6 2
12 10 12 18 0 10 15 15 48 17 37 2 47 0 47 -12 0 -9 5 -16 11 -16 6 0 9 8 7
18 -5 23 101 80 114 60 9 -16 10 -26 2 -65 -4 -22 -17 -37 -47 -54 -60 -33
-188 -118 -213 -140 -49 -45 -291 -64 -435 -34 -97 21 -187 65 -252 125 -64
59 -75 94 -42 138 1 1 18 -4 38 -13 28 -11 34 -19 30 -35 -3 -11 0 -20 6 -20
6 0 11 8 11 18 0 14 8 16 50 14 41 -3 50 -7 50 -23 0 -10 5 -19 10 -19 6 0 10
8 10 18 0 12 15 23 48 34 87 31 129 107 108 193 -9 35 -70 101 -125 133 -41
24 -56 27 -138 27 -51 0 -93 1 -93 2 0 1 30 11 66 23 80 24 208 27 259 6 41
-17 44 -12 13 21 l-22 24 39 -6 c22 -3 81 -1 130 3 50 5 105 10 124 11 l34 1
-27 -21z m362 -115 c20 -13 22 -23 22 -93 0 -76 -1 -80 -30 -105 -45 -37 -116
-66 -181 -73 -127 -13 -214 61 -194 165 l8 37 12 -48 c16 -58 27 -73 78 -99
48 -24 99 -19 160 15 76 43 102 155 50 217 l-26 32 39 -17 c21 -9 49 -23 62
-31z m-943 9 c-83 -82 -13 -231 117 -249 90 -13 154 33 165 117 7 50 23 32 23
-26 0 -90 -63 -140 -176 -139 -60 0 -82 5 -138 33 l-66 32 0 83 c0 115 6 141
38 153 43 17 56 16 37 -4z m716 -54 c21 -21 23 -59 4 -101 -11 -26 36 -24 60
2 22 24 35 26 35 5 0 -8 -6 -15 -13 -15 -7 0 -18 -9 -25 -20 -14 -24 -64 -27
-82 -6 -6 8 -17 13 -25 10 -22 -9 -72 24 -79 51 -7 27 15 80 36 88 30 12 69 6
89 -14z m-611 -9 c21 -21 28 -84 10 -95 -17 -10 9 -35 35 -35 12 0 28 7 35 15
13 16 40 21 40 8 0 -5 -16 -19 -35 -32 -30 -20 -39 -22 -60 -13 -14 7 -25 17
-25 23 0 7 -12 9 -34 5 -27 -5 -39 -2 -60 16 -37 34 -39 75 -4 108 28 26 72
26 98 0z m1014 -268 c-8 -39 17 -59 51 -44 15 7 25 20 25 32 0 12 5 18 10 15
12 -7 14 -85 2 -85 -4 0 -13 5 -18 10 -13 13 -41 3 -48 -17 -4 -9 0 -23 9 -33
14 -15 11 -19 -27 -47 -24 -17 -90 -59 -147 -93 -88 -53 -108 -61 -129 -54
-37 13 -62 53 -68 110 -8 64 0 72 147 149 81 42 114 54 122 46 19 -19 46 -12
53 14 9 34 25 32 18 -3z m56 -5 c0 -19 -10 -27 -26 -20 -21 8 -17 33 6 33 11
0 20 -6 20 -13z m10 -87 c0 -5 -7 -10 -16 -10 -8 0 -12 5 -9 10 3 6 10 10 16
10 5 0 9 -4 9 -10z m-1122 -99 c8 -21 -160 -67 -195 -54 -32 11 -53 36 -53 62
0 26 20 68 20 44 0 -17 48 -63 77 -74 40 -15 60 -3 65 37 2 19 0 37 -4 40 -4
3 -8 9 -8 15 0 9 93 -57 98 -70z m570 -83 c2 -20 -10 -38 -55 -81 -60 -58 -79
-64 -63 -21 16 41 12 64 -17 89 l-28 24 40 2 c22 1 54 5 70 9 42 10 50 7 53
-22z m-208 2 c0 -5 -8 -14 -18 -19 -14 -7 -18 -18 -14 -41 2 -16 8 -33 13 -36
12 -7 12 -44 0 -44 -5 0 -34 21 -65 48 -42 35 -55 54 -56 75 0 27 0 27 70 27
39 0 70 -4 70 -10z"/>
<path d="M1300 2282 c0 -5 -9 -12 -21 -15 -12 -3 -18 -10 -14 -16 8 -14 35
-14 35 -1 0 6 7 10 16 10 9 0 14 5 12 12 -5 15 -28 23 -28 10z"/>
<path d="M1298 2229 c-24 -13 -23 -56 1 -64 43 -13 80 36 45 62 -21 15 -24 16
-46 2z"/>
<path d="M1230 2215 c0 -8 7 -15 15 -15 8 0 15 7 15 15 0 8 -7 15 -15 15 -8 0
-15 -7 -15 -15z"/>
<path d="M1258 1232 c-42 -4 -46 -9 -21 -27 19 -14 11 -45 -11 -45 -8 0 -21 7
-30 15 -18 18 -26 19 -26 2 0 -7 9 -20 20 -30 11 -9 20 -23 20 -30 0 -25 51
-87 71 -87 21 0 58 66 59 103 0 10 7 20 15 23 8 4 15 12 15 20 0 16 -16 19
-25 4 -8 -13 -62 -13 -70 0 -4 6 4 19 16 29 26 21 17 27 -33 23z m51 -91 c12
-8 12 -15 0 -48 -8 -21 -21 -38 -29 -38 -13 0 -60 59 -60 76 0 16 67 24 89 10z"/>
<path d="M1888 1149 c-21 -12 -24 -49 -6 -67 20 -20 46 -14 65 14 16 26 16 27
-6 45 -27 22 -30 22 -53 8z m41 -23 c17 -20 -13 -43 -34 -26 -12 10 -13 16 -4
26 6 8 15 14 19 14 4 0 13 -6 19 -14z"/>
<path d="M2375 2543 c19 -48 35 -160 36 -258 2 -107 1 -112 -33 -185 -24 -52
-55 -96 -102 -145 -70 -74 -126 -150 -126 -172 0 -10 37 -13 183 -13 100 0
192 -3 205 -6 l22 -6 0 401 0 401 -96 0 c-88 0 -96 -2 -89 -17z"/>
<path d="M2277 573 c-4 -3 -7 -68 -7 -143 0 -143 10 -180 44 -167 14 6 16 27
16 162 l0 155 -23 0 c-13 0 -27 -3 -30 -7z"/>
<path d="M1000 477 c-40 -20 -51 -54 -45 -127 13 -136 59 -220 121 -220 86 0
134 64 134 178 0 74 -17 129 -50 162 -24 24 -119 28 -160 7z m96 -33 c48 -13
73 -158 39 -224 -22 -42 -68 -42 -89 -1 -15 27 -36 133 -36 178 0 41 35 61 86
47z"/>
<path d="M1225 480 c-12 -19 16 -40 51 -40 l33 0 3 -147 c2 -86 7 -148 13
-150 6 -1 17 2 25 7 12 7 16 38 18 148 l3 138 32 10 c38 11 45 29 15 38 -38
10 -186 7 -193 -4z"/>
<path d="M1863 482 c-12 -2 -26 -9 -31 -15 -17 -22 -92 -271 -92 -306 0 -6 11
-11 26 -11 19 0 28 7 36 31 9 28 14 30 41 25 16 -3 37 -6 47 -6 11 0 22 -12
29 -30 6 -20 17 -30 30 -30 30 0 33 13 17 82 -9 35 -25 107 -36 160 -22 98
-28 107 -67 100z m26 -194 c1 -23 -3 -28 -24 -28 -35 0 -40 20 -19 82 l18 53
12 -40 c7 -22 13 -52 13 -67z"/>
<path d="M2050 473 c-35 -24 -40 -33 -40 -76 0 -29 7 -46 28 -66 15 -15 34
-30 42 -33 12 -4 9 -17 -19 -70 -36 -66 -37 -103 -4 -96 10 2 29 23 43 48 l25
45 5 -35 c4 -29 10 -36 33 -38 l27 -3 -1 63 c0 35 -4 105 -7 156 -6 76 -11 96
-26 108 -27 19 -76 18 -106 -3z m70 -83 c0 -22 -3 -40 -6 -40 -19 0 -44 24
-44 44 0 27 7 36 32 36 14 0 18 -8 18 -40z"/>
<path d="M556 469 c-66 -16 -66 -17 -60 -153 7 -138 18 -196 39 -196 23 0 28
43 22 171 l-5 119 36 10 c77 21 76 24 91 -173 8 -113 19 -140 46 -117 18 15
19 108 2 250 l-12 95 -60 2 c-33 1 -78 -3 -99 -8z"/>
<path d="M835 468 c-16 -52 -24 -91 -30 -138 -3 -30 -13 -82 -21 -114 -14 -53
-14 -61 0 -75 24 -24 41 0 64 94 12 44 21 77 21 74 4 -36 35 -167 43 -177 14
-17 35 -15 42 4 3 9 -8 90 -26 180 l-31 164 -29 0 c-16 0 -30 -6 -33 -12z"/>
<path d="M1493 468 c-6 -7 -13 -78 -17 -159 -6 -152 -3 -169 36 -169 15 0 18
9 18 65 l0 65 51 0 51 0 -4 -62 c-3 -61 -2 -63 23 -66 24 -3 27 1 33 44 3 26
6 97 6 159 0 117 -10 145 -45 131 -11 -4 -15 -22 -15 -76 l0 -70 -45 0 -45 0
0 75 c0 67 -2 75 -19 75 -10 0 -23 -6 -28 -12z"/>
<path d="M2287 173 c-15 -14 -7 -43 12 -43 26 0 36 17 21 35 -14 16 -23 19
-33 8z"/>
</g>
</svg>
